<?xml version="1.0" encoding="UTF-8"?>
<svg width="24" height="24" viewBox="0 0 24 24" xmlns="http://www.w3.org/2000/svg">
    <path d="M12 2C7.58 2 4 5.58 4 10c0 2.97 2.16 5.44 5.09 5.92.55.09.91.62.82 1.17-.09.55-.62.91-1.17.82C5.16 17.44 2 14.97 2 12c0-5.52 4.48-10 10-10s10 4.48 10 10c0 2.97-3.16 5.44-6.74 5.91-.55.09-.91.62-.82 1.17.09.55.62.91 1.17.82C19.84 17.44 22 14.97 22 12c0-4.42-3.58-8-8-8zm0 14c-.83 0-1.5.67-1.5 1.5S11.17 19 12 19s1.5-.67 1.5-1.5S12.83 16 12 16zm0-10c-1.66 0-3 1.34-3 3h2c0-.55.45-1 1-1s1 .45 1 1c0 .55-.45 1-1 1-.83 0-1.5.67-1.5 1.5V13h2v-.5c0-.83.67-1.5 1.5-1.5s1.5-.67 1.5-1.5c0-1.66-1.34-3-3-3z" fill="#4ecdc4"/>
</svg>